<svg xmlns="http://www.w3.org/2000/svg" viewBox="0 0 960 460" role="img" aria-label="典型 H 桥逆变与 LC 滤波电路"><style>text{font-family:system-ui,sans-serif;font-size:18px;fill:#26313b}.wire{fill:none;stroke:#394b5a;stroke-width:2.5}.ctrl{fill:none;stroke:#cf590c;stroke-width:2;stroke-dasharray:6 5}.part{fill:#fff;stroke:#394b5a;stroke-width:2}.note{font-size:15px;fill:#626d77}.node{fill:#394b5a}</style><text x="25" y="30" class="">典型单相逆变：直流母线 → H 桥 → LC 滤波 → 负载</text><text x="25" y="85" class="">DC +</text><text x="25" y="295" class="">DC −</text><path class="wire" d="M85 70 H400 M85 280 H400"/><path class="wire" d="M105 70 V165 M92 165 H118 M92 180 H118 M105 180 V280"/><text x="115" y="210" class="">Cdc</text><path class="wire" d="M220 70 V100 M220 100 l-17 42 M220 147 V205 M220 205 l-17 42 M220 252 V280"/><text x="232" y="130" class="">Q1</text><text x="232" y="235" class="">Q2</text><circle class="node" cx="220" cy="175" r="4"/><path class="wire" d="M390 70 V100 M390 100 l-17 42 M390 147 V205 M390 205 l-17 42 M390 252 V280"/><text x="402" y="130" class="">Q3</text><text x="402" y="235" class="">Q4</text><circle class="node" cx="390" cy="175" r="4"/><text x="180" y="172" class="">A</text><text x="410" y="173" class="">B</text><path class="wire" d="M220 175 H280 V48 H490 V135 H515"/><path class="wire" d="M515 135 c0 -22 24 -22 24 0 c0 -22 24 -22 24 0 c0 -22 24 -22 24 0 c0 -22 24 -22 24 0 H850"/><text x="550" y="105" class="">Lf</text><path class="wire" d="M390 175 H480 V275 H850"/><path class="wire" d="M680 135 V193 M664 193 H696 M664 207 H696 M680 207 V275"/><text x="700" y="210" class="">Cf</text><path class="wire" d="M850 135 V172 M850 237 V275"/><rect class="part" x="834" y="172" width="32" height="65"/><text x="872" y="207" class="">负载</text><circle class="node" cx="680" cy="135" r="4"/><circle class="node" cx="680" cy="275" r="4"/><circle class="node" cx="850" cy="135" r="4"/><circle class="node" cx="850" cy="275" r="4"/><rect class="part" x="185" y="340" width="275" height="55"/><text x="207" y="374" class="">PWM 控制 / 栅极驱动</text><path class="ctrl" d="M220 340 V300 M390 340 V300"/><path class="ctrl" d="M850 275 V415 H480 V368 H460"/><text x="505" y="407" class="note">输出电压 / 电流采样反馈</text><text x="25" y="445" class="note">Q1+Q4 与 Q2+Q3 交替导通；同桥臂禁止直通，需死区。Q 为功率开关简化符号。</text></svg>