<?xml version='1.0' encoding='utf-8'?>
<svg xmlns="http://www.w3.org/2000/svg" xmlns:ns1="http://www.inkscape.org/namespaces/inkscape" version="1.1" width="21.26300048828125" height="21.26300048828125" viewBox="195.15699768066406 375.34039306640625 21.26300048828125 21.26300048828125"><defs>
<clipPath id="clip_1">
<path transform="matrix(1,0,0,-1,0,524.823)" d="M0 524.823H368.918V0H0Z" />
</clipPath>
<clipPath id="clip_2">
<path transform="matrix(1,0,0,-1,0,524.823)" d="M0 524.823H368.918V0H0Z" />
</clipPath>
<clipPath id="clip_3">
<path transform="matrix(1,0,0,-1,0,524.823)" d="M39.7112 192.468H58.5009V209.206H39.7112Z" />
</clipPath>
<clipPath id="clip_4">
<path transform="matrix(1,0,0,-1,0,524.823)" d="M203.411 199.628H207.01V206.877H203.411Z" />
</clipPath>
<clipPath id="clip_5">
<path transform="matrix(1,0,0,-1,0,524.823)" d="M202.297 194.147H208.124V199.756H202.297Z" />
</clipPath>
<clipPath id="clip_6">
<path transform="matrix(1,0,0,-1,0,524.823)" d="M40.1787 130.641H58.9912V147.4H40.1787Z" />
</clipPath>
<clipPath id="clip_7">
<path transform="matrix(1,0,0,-1,0,524.823)" d="M40.2266 99.8223H58.6181V115.766H40.2266Z" />
</clipPath>
<clipPath id="clip_8">
<path transform="matrix(1,0,0,-1,0,524.823)" d="M40.5742 70.0034H58.9657V85.9473H40.5742Z" />
</clipPath>
<clipPath id="clip_9">
<path transform="matrix(1,0,0,-1,0,524.823)" d="M198.819 165.718H206.219V176.741H198.819Z" />
</clipPath>
<clipPath id="clip_10">
<path transform="matrix(1,0,0,-1,0,524.823)" d="M201.415 163.296H203.6V165.322H201.415Z" />
</clipPath>
<clipPath id="clip_11">
<path transform="matrix(1,0,0,-1,0,524.823)" d="M203.445 164.819H212.755V172.171H203.445Z" />
</clipPath>
<clipPath id="clip_12">
<path transform="matrix(1,0,0,-1,0,524.823)" d="M202.867 164.402H204.215V165.815H202.867Z" />
</clipPath>
<clipPath id="clip_13">
<path transform="matrix(1,0,0,-1,0,524.823)" d="M39.7065 37.8146H58.0979V53.7584H39.7065Z" />
</clipPath>
<clipPath id="clip_14">
<path transform="matrix(1,0,0,-1,0,524.823)" d="M205.43 133.209H211.674V144.986H205.43Z" />
</clipPath>
<clipPath id="clip_15">
<path transform="matrix(1,0,0,-1,0,524.823)" d="M198.852 132.61H204.119V141.226H198.852Z" />
</clipPath>
<clipPath id="clip_16">
<path transform="matrix(1,0,0,-1,0,524.823)" d="M0 524.823H368.918V0H0Z" />
</clipPath>
<clipPath id="clip_17">
<path transform="matrix(1,0,0,-1,0,524.823)" d="M0 524.823H368.918V0H0Z" />
</clipPath>
<clipPath id="clip_18">
<path transform="matrix(1,0,0,-1,0,524.823)" d="M0 524.823H368.918V0H0Z" />
</clipPath>
<clipPath id="clip_19">
<path transform="matrix(1,0,0,-1,0,524.823)" d="M0 524.823H368.918V0H0Z" />
</clipPath>
<clipPath id="clip_20">
<path transform="matrix(1,0,0,-1,0,524.823)" d="M0 524.823H368.918V0H0Z" />
</clipPath>
<clipPath id="clip_21">
<path transform="matrix(1,0,0,-1,0,524.823)" d="M0 524.823H368.918V0H0Z" />
</clipPath>
<clipPath id="clip_22">
<path transform="matrix(1,0,0,-1,0,524.823)" d="M0 524.823H368.918V0H0Z" />
</clipPath>
<clipPath id="clip_23">
<path transform="matrix(1,0,0,-1,0,524.823)" d="M0 524.823H368.918V0H0Z" />
</clipPath>
<clipPath id="clip_24">
<path transform="matrix(1,0,0,-1,0,524.823)" d="M0 524.823H368.918V0H0Z" />
</clipPath>
</defs>
<g><g ns1:groupmode="layer" ns1:label="图层 1"><g clip-path="url(#clip_2)"><g opacity=".800003"><g clip-path="url(#clip_14)"><path transform="matrix(1,0,0,-1,211.2414,386.35353)" d="M0 0C.238 0 .432 .193 .432 .432V1.538C.432 1.861 .321 2.174 .118 2.426L-.913 3.7C-1.098 3.885-1.315 4.139-1.994 4.146L-2.045 4.489C-1.644 4.636-1.358 5.018-1.358 5.469-1.358 6.048-1.827 6.517-2.406 6.517-2.985 6.517-3.454 6.048-3.454 5.469-3.454 4.971-3.107 4.558-2.643 4.45L-2.575 3.983C-2.913 3.797-3.158 3.518-3.158 3.518L-5.635 1.457C-5.843 1.283-5.871 .974-5.699 .766-5.525 .557-5.215 .529-5.008 .702L-3.408 2.033C-3.344 2.086-3.248 2.041-3.248 1.959V-.118C-3.248-.294-3.655-.763-3.724-.87L-4.649-2.279C-4.722-2.39-4.762-2.52-4.764-2.654L-4.786-4.239C-4.786-4.474-4.579-4.682-4.344-4.682-4.109-4.682-3.814-4.474-3.814-4.239-3.814-4.239-3.75-3.388-3.771-3-3.777-2.857-3.741-2.718-3.665-2.596-3.665-2.596-3.047-1.702-2.787-1.418-2.729-1.356-2.614-1.356-2.533-1.356H-2.217C-2.139-1.356-2.086-1.462-2.086-1.55V-2.091L-2.095-2.776C-2.096-2.933-2.045-3.086-1.951-3.212L-.626-5.063C-.444-5.29-.111-5.326 .116-5.144 .343-4.961 .379-4.629 .196-4.402L-.886-3.056C-1.004-2.909-1.068-2.728-1.068-2.54V-1.356 2.218C-1.068 2.39-.992 2.41-.959 2.375-.842 2.25-.827 2.212-.782 2.157-.605 1.941-.432 1.762-.432 1.483V.432C-.432 .193-.238 0 0 0" fill="#3e3a39" />
</g></g><g opacity=".800003"><g clip-path="url(#clip_15)"><path transform="matrix(1,0,0,-1,203.9994,387.2879)" d="M0 0-1.662 1.451C-1.796 1.585-1.951 1.77-2.45 1.77-2.456 1.77-2.46 1.768-2.466 1.768L-2.487 1.92C-2.094 2.015-1.801 2.368-1.801 2.791-1.801 3.288-2.204 3.691-2.701 3.691-3.198 3.691-3.6 3.288-3.6 2.791-3.6 2.365-3.302 2.01-2.904 1.917L-2.863 1.643C-3.094 1.51-3.259 1.322-3.259 1.322L-5.022-.145C-5.17-.268-5.19-.488-5.068-.637-4.944-.785-4.724-.805-4.575-.682L-3.512 .203C-3.437 .266-3.324 .212-3.324 .115V-1.265C-3.324-1.391-3.613-1.724-3.662-1.801L-4.318-2.798C-4.371-2.881-4.4-2.977-4.403-3.076L-4.419-4.198C-4.419-4.366-4.27-4.514-4.103-4.514-3.936-4.514-3.726-4.366-3.726-4.198-3.726-4.198-3.68-3.592-3.695-3.317-3.7-3.215-3.674-3.116-3.621-3.029-3.621-3.029-3.181-2.393-2.995-2.191-2.954-2.147-2.873-2.146-2.814-2.146H-2.591C-2.534-2.146-2.496-2.222-2.496-2.285V-2.67L-2.502-3.157C-2.503-3.269-2.467-3.378-2.4-3.468L-1.457-4.785C-1.328-4.946-1.09-4.972-.929-4.842-.768-4.712-.742-4.475-.871-4.314L-1.642-3.356C-1.726-3.252-1.771-3.123-1.771-2.989V-2.146 .368C-1.771 .466-1.656 .519-1.582 .454L-.46-.527C-.314-.652-.093-.638 .033-.492 .16-.347 .145-.127 0 0" fill="#3e3a39" />
</g></g><path transform="matrix(1,0,0,-1,199.9296,379.2125)" d="M0 0 12.623-12.623 11.714-13.53-.908-.908Z" fill="#3e3a39" />
<path transform="matrix(1,0,0,-1,209.802,392.9234)" d="M0 0C-2.484-1.434-5.543-1.434-8.026 0-10.51 1.434-12.039 4.084-12.039 6.951-12.039 11.383-8.446 14.977-4.014 14.977 .42 14.977 4.013 11.383 4.013 6.951 4.013 4.084 2.484 1.434 0 0M-4.014 16.583C-9.333 16.583-13.645 12.271-13.645 6.951-13.645 1.632-9.333-2.68-4.014-2.68 1.306-2.68 5.618 1.632 5.618 6.951 5.618 12.271 1.306 16.583-4.014 16.583" fill="#3e3a39" />
</g></g></g></svg>